<svg width="0" height="0" class="hidden">
  <symbol xmlns="http://www.w3.org/2000/svg" fill="none" stroke="currentColor" stroke-width="2"
    stroke-linecap="round" stroke-linejoin="round" viewBox="0 0 24 24" id="loader-circle">
    <path d="M21 12a9 9 0 1 1-6.219-8.56"></path>
  </symbol>
  <symbol xmlns="http://www.w3.org/2000/svg" fill="none" stroke="currentColor" stroke-width="2"
    stroke-linecap="round" stroke-linejoin="round" id="pen" viewBox="0 0 24 24">
    <path
      d="M21.174 6.812a1 1 0 0 0-3.986-3.987L3.842 16.174a2 2 0 0 0-.5.83l-1.321 4.352a.5.5 0 0 0 .623.622l4.353-1.32a2 2 0 0 0 .83-.497z"></path>
  </symbol>
  <symbol xmlns="http://www.w3.org/2000/svg" fill="none" stroke="currentColor" stroke-width="2"
    stroke-linecap="round" stroke-linejoin="round" viewBox="0 0 24 24" id="tag">
    <path
      d="M12.586 2.586A2 2 0 0 0 11.172 2H4a2 2 0 0 0-2 2v7.172a2 2 0 0 0 .586 1.414l8.704 8.704a2.426 2.426 0 0 0 3.42 0l6.58-6.58a2.426 2.426 0 0 0 0-3.42z"></path>
    <circle cx="7.5" cy="7.5" r=".5" fill="currentColor"></circle>
  </symbol>
  <symbol xmlns="http://www.w3.org/2000/svg" fill="none" stroke="currentColor" stroke-width="2"
    stroke-linecap="round" stroke-linejoin="round" viewBox="0 0 24 24" id="shuffle">
    <path d="M2 18h1.4c1.3 0 2.5-.6 3.3-1.7l6.1-8.6c.7-1.1 2-1.7 3.3-1.7H22"></path>
    <path d="m18 2 4 4-4 4"></path>
    <path d="M2 6h1.9c1.5 0 2.9.9 3.6 2.2"></path>
    <path d="M22 18h-5.9c-1.3 0-2.6-.7-3.3-1.8l-.5-.8"></path>
    <path d="m18 14 4 4-4 4"></path>
  </symbol>
  <symbol xmlns="http://www.w3.org/2000/svg" fill="none" stroke="currentColor" stroke-width="2"
    stroke-linecap="round" stroke-linejoin="round" id="trash" viewBox="0 0 24 24">
    <path d="M3 6h18"></path>
    <path d="M19 6v14c0 1-1 2-2 2H7c-1 0-2-1-2-2V6"></path>
    <path d="M8 6V4c0-1 1-2 2-2h4c1 0 2 1 2 2v2"></path>
  </symbol>
</svg>
